<svg width="74" height="74" viewBox="0 0 74 74" fill="none" xmlns="http://www.w3.org/2000/svg">
<rect width="74" height="74" fill="#E5E5E5"/>
<rect width="1440" height="1563" transform="translate(-683 -656)" fill="white"/>
<rect x="-683" y="-80" width="1440" height="282" fill="#F5F6F7"/>
<mask id="path-2-inside-1_0_1" fill="white">
<path d="M74 37C74 53.604 63.0629 67.6536 48 72.3374C44.525 73.4179 40.8305 74 37 74C16.5655 74 0 57.4345 0 37C0 16.5655 16.5655 0 37 0C57.4345 0 74 16.5655 74 37Z"/>
</mask>
<path d="M74 37C74 53.604 63.0629 67.6536 48 72.3374C44.525 73.4179 40.8305 74 37 74C16.5655 74 0 57.4345 0 37C0 16.5655 16.5655 0 37 0C57.4345 0 74 16.5655 74 37Z" stroke="url(#paint0_angular_0_1)" stroke-width="2" stroke-linecap="round" stroke-linejoin="round" mask="url(#path-2-inside-1_0_1)"/>
<defs>
<radialGradient id="paint0_angular_0_1" cx="0" cy="0" r="1" gradientUnits="userSpaceOnUse" gradientTransform="translate(37 37) rotate(90) scale(37)">
<stop stop-color="#1A1B22"/>
<stop offset="1" stop-color="#D1D2D6" stop-opacity="0"/>
</radialGradient>
</defs>
</svg>
